<?xml version="1.0" encoding="utf-8"?>
<!-- Generator: Adobe Illustrator 24.0.1, SVG Export Plug-In . SVG Version: 6.00 Build 0)  -->
<svg version="1.1" xmlns="http://www.w3.org/2000/svg" xmlns:xlink="http://www.w3.org/1999/xlink" x="0px" y="0px"
	 viewBox="0 0 80 22" style="enable-background:new 0 0 80 22;" xml:space="preserve">
<style type="text/css">
	.st0{fill:none;}
	.st1{fill:#010202;}
</style>
<g id="Layer_1">
</g>
<g id="Layer_2">
	<path class="st0" d="M-4268.94,961.7c-5.69,0-10.84,2.26-12.58,8.08h25.16C-4258.1,963.96-4263.25,961.7-4268.94,961.7z"/>
	<g>
		
			<rect x="35.36" y="13.92" transform="matrix(1 1.465292e-03 -1.465292e-03 1 0.0219 -0.0538)" class="st1" width="2.7" height="2.06"/>
		<path class="st1" d="M33.25,10.34c-0.49-2.86-3.1-3.95-6.03-3.95c-3.25,0-6.12,1.33-6.13,4.96s2.86,4.98,6.11,4.98
			c1.89,0,3.74-0.34,4.88-1.42l-1.72-1.84c-0.89,0.96-2.33,1.1-3.16,1.1c-1.25,0-2.39-0.5-2.77-1.78l5.54,0.01l3.27,0l0.09,0l0-1.03
			C33.34,11.01,33.31,10.66,33.25,10.34z M24.45,10.33c0.39-1.28,1.52-1.78,2.77-1.78c1.25,0,2.39,0.5,2.77,1.78L24.45,10.33z"/>
		<g>
			
				<rect x="53.03" y="6.89" transform="matrix(1 1.465292e-03 -1.465292e-03 1 0.0168 -0.0802)" class="st1" width="3.35" height="9.12"/>
			
				<rect x="53.04" y="3.28" transform="matrix(1 1.465292e-03 -1.465292e-03 1 6.643026e-03 -0.0802)" class="st1" width="3.35" height="2.42"/>
		</g>
		<path class="st1" d="M65.71,8.91l0-2.06l-2.29,0l0-3.1l-1.01,0L58.34,7.9l0,1l1.73,0l-0.01,4.34c0,2.38,1.69,2.78,2.41,2.78l0,0
			l3.23,0l0-2.55l-1.29,0c-0.79,0-0.99-0.23-0.99-0.67l0.01-3.9L65.71,8.91z"/>
		<polygon class="st1" points="75.12,6.66 72.96,13.91 70.88,6.87 67.5,6.87 70.2,16.03 72.32,16.03 70.93,20.71 74.31,20.72 
			78.5,6.67 		"/>
		<path class="st1" d="M45.88,14.24c-1.55,0-2.91-0.76-2.9-2.81s1.37-2.81,2.91-2.8c1.25,0,2.39,0.5,2.77,1.78l3.08-0.7
			c-0.78-2.33-3.18-3.24-5.85-3.24c-3.25,0-6.12,1.33-6.13,4.96c-0.01,3.63,2.86,4.98,6.11,4.98c2.67,0,5.07-0.9,5.86-3.23
			l-3.08-0.71C48.27,13.74,47.13,14.24,45.88,14.24z"/>
		<polygon class="st1" points="16.87,6.78 14.61,12.12 12.68,6.78 12.47,6.78 9.66,6.78 9.45,6.78 7.46,12.27 5.14,6.78 1.5,6.78 
			5.37,15.95 6.13,15.95 9.01,15.95 9.14,15.95 11.06,10.64 12.99,15.95 13,15.95 16,15.95 16.64,15.95 20.51,6.78 		"/>
	</g>
</g>
</svg>
