<svg width="23" height="26" viewBox="0 0 23 26" fill="none" xmlns="http://www.w3.org/2000/svg">
<path d="M19.3334 0.166626V3.66663H22.8334V5.99996H19.3334V9.49996H17.0001V5.99996H13.5001V3.66663H17.0001V0.166626H19.3334ZM10.0001 14.1666C11.2834 14.1666 12.3334 13.1166 12.3334 11.8333C12.3334 10.55 11.2834 9.49996 10.0001 9.49996C8.71675 9.49996 7.66675 10.55 7.66675 11.8333C7.66675 13.1166 8.71675 14.1666 10.0001 14.1666ZM12.3334 2.73329V7.16663H15.8334V10.6666H19.2167C19.2167 11.1333 19.3334 11.6 19.3334 12.0666C19.3334 15.9166 16.1834 20.5833 10.0001 25.8333C3.81675 20.5833 0.666748 15.9166 0.666748 12.0666C0.666748 6.23329 5.10008 2.49996 10.0001 2.49996C10.8167 2.49996 11.6334 2.61663 12.3334 2.73329Z" fill="black"/>
</svg>
